<svg width="50" height="49" viewBox="0 0 50 49" fill="none" xmlns="http://www.w3.org/2000/svg">
<ellipse cx="25" cy="24.0598" rx="25" ry="24.0598" fill="black"/>
<g clip-path="url(#clip0_200_3)">
<path d="M20.0343 33.156C20.0343 33.28 19.8952 33.3793 19.7198 33.3793C19.5202 33.3979 19.381 33.2986 19.381 33.156C19.381 33.0319 19.5202 32.9326 19.6956 32.9326C19.877 32.914 20.0343 33.0133 20.0343 33.156ZM18.1532 32.8768C18.1109 33.0009 18.2319 33.1435 18.4133 33.1808C18.5706 33.2428 18.752 33.1808 18.7883 33.0567C18.8246 32.9326 18.7097 32.79 18.5282 32.7341C18.371 32.6907 18.1956 32.7527 18.1532 32.8768ZM20.8266 32.7713C20.6512 32.8148 20.5302 32.9326 20.5484 33.0753C20.5665 33.1994 20.7238 33.28 20.9052 33.2366C21.0806 33.1932 21.2016 33.0753 21.1835 32.9512C21.1653 32.8334 21.002 32.7527 20.8266 32.7713ZM24.8065 9C16.4173 9 10 15.5322 10 24.1362C10 31.0158 14.2218 36.9028 20.252 38.9747C21.0262 39.1174 21.2984 38.6273 21.2984 38.2241C21.2984 37.8395 21.2802 35.718 21.2802 34.4152C21.2802 34.4152 17.0464 35.3457 16.1573 32.5666C16.1573 32.5666 15.4677 30.7614 14.4758 30.2962C14.4758 30.2962 13.0907 29.3223 14.5726 29.3409C14.5726 29.3409 16.0786 29.4649 16.9073 30.9414C18.2319 33.3359 20.4516 32.6473 21.3165 32.2379C21.4556 31.2453 21.8488 30.5567 22.2843 30.1473C18.9032 29.7627 15.4919 29.2602 15.4919 23.2926C15.4919 21.5867 15.9516 20.7306 16.9194 19.6388C16.7621 19.2356 16.248 17.5731 17.0766 15.4267C18.3407 15.0235 21.25 17.1016 21.25 17.1016C22.4597 16.7542 23.7601 16.5743 25.0484 16.5743C26.3367 16.5743 27.6371 16.7542 28.8468 17.1016C28.8468 17.1016 31.756 15.0173 33.0202 15.4267C33.8488 17.5793 33.3347 19.2356 33.1774 19.6388C34.1452 20.7368 34.7379 21.5929 34.7379 23.2926C34.7379 29.2788 31.1754 29.7565 27.7944 30.1473C28.3508 30.6374 28.8226 31.5679 28.8226 33.0257C28.8226 35.1162 28.8044 37.703 28.8044 38.2117C28.8044 38.6149 29.0827 39.105 29.8508 38.9623C35.8992 36.9028 40 31.0158 40 24.1362C40 15.5322 33.1956 9 24.8065 9ZM15.879 30.3955C15.8004 30.4575 15.8185 30.6002 15.9214 30.718C16.0181 30.8173 16.1573 30.8607 16.2359 30.7801C16.3145 30.718 16.2964 30.5753 16.1935 30.4575C16.0968 30.3582 15.9577 30.3148 15.879 30.3955ZM15.2258 29.893C15.1835 29.9736 15.244 30.0729 15.3649 30.1349C15.4617 30.1969 15.5827 30.1783 15.625 30.0915C15.6673 30.0108 15.6069 29.9116 15.4859 29.8496C15.3649 29.8123 15.2681 29.8309 15.2258 29.893ZM17.1855 32.1014C17.0887 32.182 17.125 32.3681 17.2641 32.486C17.4032 32.6287 17.5786 32.6473 17.6573 32.548C17.7359 32.4674 17.6996 32.2813 17.5786 32.1634C17.4456 32.0207 17.2641 32.0021 17.1855 32.1014ZM16.496 31.1895C16.3992 31.2515 16.3992 31.4128 16.496 31.5555C16.5927 31.6982 16.756 31.7602 16.8347 31.6982C16.9315 31.6175 16.9315 31.4562 16.8347 31.3136C16.75 31.1709 16.5927 31.1088 16.496 31.1895Z" fill="white"/>
</g>
<defs>
<clipPath id="clip0_200_3">
<rect width="30" height="30" fill="white" transform="translate(10 9)"/>
</clipPath>
</defs>
</svg>
