<svg width="50" height="49" viewBox="0 0 50 49" fill="none" xmlns="http://www.w3.org/2000/svg">
<ellipse cx="25" cy="24.0598" rx="25" ry="24.0598" fill="black"/>
<path d="M31.675 16.1921C31.3783 16.1921 31.0883 16.2768 30.8416 16.4354C30.595 16.594 30.4027 16.8195 30.2892 17.0833C30.1756 17.3471 30.1459 17.6373 30.2038 17.9174C30.2617 18.1974 30.4046 18.4546 30.6143 18.6565C30.8241 18.8584 31.0914 18.9959 31.3824 19.0516C31.6733 19.1073 31.9749 19.0787 32.249 18.9694C32.5231 18.8602 32.7574 18.6751 32.9222 18.4377C33.087 18.2003 33.175 17.9212 33.175 17.6357C33.175 17.2529 33.017 16.8857 32.7357 16.615C32.4544 16.3442 32.0728 16.1921 31.675 16.1921ZM37.425 19.1034C37.4007 18.1053 37.2064 17.1177 36.85 16.1801C36.5322 15.3779 36.0375 14.6514 35.4 14.0508C34.781 13.4342 34.0245 12.9611 33.1875 12.6674C32.2158 12.3139 31.1886 12.1227 30.15 12.102C28.825 12.0298 28.4 12.0298 25 12.0298C21.6 12.0298 21.175 12.0298 19.85 12.102C18.8114 12.1227 17.7842 12.3139 16.8125 12.6674C15.9771 12.9641 15.2212 13.4368 14.6 14.0508C13.9593 14.6465 13.4677 15.3746 13.1625 16.1801C12.7952 17.1152 12.5965 18.1039 12.575 19.1034C12.5 20.3785 12.5 20.7876 12.5 24.0597C12.5 27.3318 12.5 27.7409 12.575 29.016C12.5965 30.0155 12.7952 31.0042 13.1625 31.9393C13.4677 32.7448 13.9593 33.4729 14.6 34.0686C15.2212 34.6826 15.9771 35.1553 16.8125 35.452C17.7842 35.8055 18.8114 35.9967 19.85 36.0174C21.175 36.0896 21.6 36.0896 25 36.0896C28.4 36.0896 28.825 36.0896 30.15 36.0174C31.1886 35.9967 32.2158 35.8055 33.1875 35.452C34.0245 35.1583 34.781 34.6852 35.4 34.0686C36.0403 33.4702 36.5354 32.7431 36.85 31.9393C37.2064 31.0017 37.4007 30.0142 37.425 29.016C37.425 27.7409 37.5 27.3318 37.5 24.0597C37.5 20.7876 37.5 20.3785 37.425 19.1034ZM35.175 28.8717C35.1659 29.6353 35.0222 30.3919 34.75 31.1092C34.5504 31.6328 34.2299 32.1058 33.8125 32.4927C33.4071 32.8903 32.9165 33.1981 32.375 33.3949C31.6296 33.6569 30.8435 33.7952 30.05 33.8039C28.8 33.8641 28.3375 33.8761 25.05 33.8761C21.7625 33.8761 21.3 33.8761 20.05 33.8039C19.2261 33.8188 18.4057 33.6967 17.625 33.443C17.1072 33.2362 16.6392 32.9291 16.25 32.5408C15.8351 32.1543 15.5186 31.6809 15.325 31.1573C15.0198 30.4297 14.8506 29.6559 14.825 28.8717C14.825 27.6687 14.75 27.2236 14.75 24.0597C14.75 20.8958 14.75 20.4507 14.825 19.2477C14.8306 18.4671 14.9787 17.6934 15.2625 16.962C15.4826 16.4543 15.8203 16.0017 16.25 15.6388C16.6298 15.2251 17.0991 14.8966 17.625 14.6764C18.3869 14.4118 19.19 14.2735 20 14.2673C21.25 14.2673 21.7125 14.1952 25 14.1952C28.2875 14.1952 28.75 14.1952 30 14.2673C30.7935 14.2761 31.5796 14.4144 32.325 14.6764C32.893 14.8793 33.4029 15.2091 33.8125 15.6388C34.2221 16.0083 34.5422 16.4601 34.75 16.962C35.0278 17.6946 35.1716 18.4679 35.175 19.2477C35.2375 20.4507 35.25 20.8958 35.25 24.0597C35.25 27.2236 35.2375 27.6687 35.175 28.8717ZM25 17.8884C23.7323 17.8907 22.4937 18.2547 21.4408 18.9343C20.3879 19.6138 19.568 20.5785 19.0845 21.7064C18.6011 22.8342 18.4759 24.0747 18.7247 25.271C18.9736 26.4674 19.5853 27.5659 20.4826 28.4277C21.3799 29.2896 22.5225 29.8762 23.7661 30.1133C25.0096 30.3505 26.2983 30.2276 27.4693 29.7601C28.6403 29.2927 29.6411 28.5017 30.3452 27.4871C31.0492 26.4725 31.425 25.2798 31.425 24.0597C31.4267 23.2478 31.2615 22.4436 30.9391 21.6934C30.6166 20.9431 30.1432 20.2616 29.5461 19.6881C28.949 19.1146 28.2399 18.6603 27.4597 18.3514C26.6796 18.0426 25.8436 17.8852 25 17.8884ZM25 28.0657C24.1767 28.0657 23.372 27.8307 22.6874 27.3905C22.0029 26.9504 21.4694 26.3247 21.1544 25.5927C20.8393 24.8607 20.7569 24.0553 20.9175 23.2782C21.0781 22.5011 21.4745 21.7873 22.0567 21.2271C22.6388 20.6668 23.3805 20.2853 24.1879 20.1307C24.9954 19.9761 25.8323 20.0555 26.5929 20.3587C27.3535 20.6619 28.0036 21.1753 28.461 21.8341C28.9184 22.4929 29.1625 23.2674 29.1625 24.0597C29.1625 24.5858 29.0548 25.1067 28.8456 25.5927C28.6365 26.0787 28.3299 26.5204 27.9433 26.8923C27.5568 27.2643 27.0979 27.5594 26.5929 27.7607C26.0879 27.962 25.5466 28.0657 25 28.0657Z" fill="white"/>
</svg>
